<?xml version="1.0" standalone="no"?>
<!DOCTYPE svg PUBLIC "-//W3C//DTD SVG 20010904//EN"
 "http://www.w3.org/TR/2001/REC-SVG-20010904/DTD/svg10.dtd">
<svg version="1.0" xmlns="http://www.w3.org/2000/svg"
 width="700.000000pt" height="700.000000pt" viewBox="0 0 700.000000 700.000000"
 preserveAspectRatio="xMidYMid meet">
<metadata>
Created by potrace 1.11, written by Peter Selinger 2001-2013
</metadata>
<g transform="translate(0.000000,700.000000) scale(0.100000,-0.100000)"
fill="#000000" stroke="none">
<path d="M3015 5763 c-186 -70 -303 -102 -500 -137 -16 -3 -39 -8 -50 -10 -11
-2 -45 -7 -76 -10 -31 -4 -65 -8 -75 -10 -11 -2 -45 -7 -76 -10 -44 -6 -58
-11 -59 -24 -7 -173 -3 -202 29 -200 28 2 133 -11 187 -23 150 -33 293 -174
350 -344 15 -46 21 -193 16 -394 l-1 -34 -167 7 c-93 3 -179 8 -193 10 -14 3
-59 8 -100 11 -41 3 -104 8 -140 11 -36 3 -81 7 -100 9 -192 25 -534 25 -670
1 -198 -35 -390 -115 -556 -231 -390 -271 -649 -759 -690 -1297 -6 -83 -6
-284 0 -328 3 -19 8 -62 11 -95 36 -341 209 -766 402 -985 152 -173 350 -307
570 -384 67 -23 167 -47 273 -64 56 -9 339 -8 530 1 341 17 523 27 585 33 77
7 544 14 965 14 l425 0 -1 98 c-1 53 -2 99 -3 102 0 3 -13 7 -28 8 -40 3 -161
37 -213 60 -125 55 -207 160 -237 306 -4 17 -8 542 -10 1166 l-3 1134 35 -34
c69 -67 148 -211 250 -460 26 -63 62 -151 80 -195 19 -44 61 -147 95 -230 34
-82 67 -163 75 -180 7 -16 28 -66 45 -110 17 -44 38 -93 45 -110 12 -26 138
-331 240 -580 60 -148 416 -1010 428 -1038 l12 -27 200 0 200 0 59 138 c33 75
70 160 82 187 13 28 78 178 145 335 67 157 129 303 139 325 10 22 91 209 180
415 88 206 169 393 179 415 10 22 44 101 76 175 31 74 67 158 80 185 12 28 39
91 60 140 48 112 134 281 174 340 41 62 74 108 86 121 143 159 233 222 415
284 l74 25 1 95 c1 52 -1 101 -3 108 -3 9 -204 12 -961 12 l-958 0 0 -100 c-1
-55 2 -102 5 -104 4 -2 30 -7 57 -10 28 -4 57 -9 65 -11 8 -2 38 -6 65 -10 28
-3 82 -12 120 -20 39 -8 84 -16 102 -20 77 -13 206 -47 295 -79 147 -51 223
-107 241 -176 8 -32 -10 -148 -34 -219 -11 -31 -21 -63 -23 -72 -3 -9 -13 -38
-25 -65 -11 -27 -31 -78 -44 -114 -14 -36 -48 -126 -77 -200 -28 -74 -53 -139
-54 -145 -2 -5 -8 -23 -15 -40 -6 -16 -23 -61 -38 -100 -14 -38 -36 -97 -49
-130 -19 -49 -238 -626 -375 -988 -18 -48 -36 -84 -40 -80 -4 5 -46 112 -94
238 -48 127 -97 257 -110 290 -13 33 -59 155 -103 270 -44 116 -124 325 -177
465 -54 140 -117 309 -141 375 -25 66 -49 129 -54 140 -58 121 -135 392 -147
516 -11 120 18 160 122 173 28 4 59 8 70 10 18 3 20 11 20 92 0 49 -1 95 -3
102 -3 9 -122 12 -548 12 l-544 0 0 660 0 660 -137 -1 -138 0 -120 -46z m-965
-1447 c199 -40 412 -150 634 -329 l79 -63 -1 -884 c0 -487 -1 -903 -1 -925 -1
-38 -9 -50 -103 -149 -56 -59 -131 -131 -167 -160 -68 -54 -186 -136 -195
-136 -3 0 -32 -13 -64 -28 -186 -90 -436 -120 -641 -76 -58 12 -159 50 -204
76 -26 16 -50 28 -52 28 -13 0 -107 80 -160 135 -107 112 -198 289 -259 505
-14 52 -28 106 -31 120 -3 14 -7 36 -10 50 -28 144 -40 269 -40 450 0 208 8
282 49 475 93 430 245 677 506 822 133 73 264 101 465 98 88 -1 176 -5 195 -9z"/>
</g>
</svg>
