<svg xmlns="http://www.w3.org/2000/svg" height="82mm" width="82mm" version="1.1" viewBox="0 0 82.000227 81.999443">
	<g transform="matrix(1.2795 0 0 1.2795 -11.191 -36.872)">
		<path style="font-variant-ligatures:normal;font-variant-numeric:normal;font-variant-caps:normal;font-feature-settings:normal" d="m34.034 51.091c-4.1183-0.036-6.5378-0.65423-10.336-0.65423-7.7832 0-13.698 6.7869-13.698 15.753 0 3.8604 1.3076 8.0322 3.4246 10.834 2.1793 2.9265 5.9775 4.7322 9.8379 4.7322 1.8712-0.0294 7.5591-0.37019 10.772-0.56038h10.461v-1.868l-0.74718-0.12453c-2.8642-0.62265-3.7982-1.868-3.7982-5.168v-34.309h-2.4906c-3.1133 1.2453-4.5454 1.6189-8.7794 2.117v1.9302l1.3076 0.12453c3.3623 0.31132 4.0472 3.7987 4.0472 3.7987zm0 22.758c-2.8019 3.4246-5.4793 4.919-8.9662 4.919-3.1133 0-5.7284-1.6812-7.036-4.5454-1.0585-2.2416-1.6812-5.2926-1.6812-8.1568 0-2.8019 0.62265-5.7284 1.6189-7.97 1.4321-3.1755 4.0472-4.8567 7.5964-4.8567 2.9887 0 5.1058 0.93398 8.4681 3.7359z"/>
		<path style="font-variant-ligatures:normal;font-variant-numeric:normal;font-variant-caps:normal;font-feature-settings:normal" d="m55.643 76.521-7.036-18.493c-0.60775-2.4246-1.088-4.0866 0.31167-4.234 0.12453 0 0.56039-0.0623 1.0585-0.12453v-1.868h-13.076v1.9302c2.8019 0.43586 3.6737 1.1208 5.1058 4.2963l9.9002 23.972h3.6736l9.5266-22.042c1.6812-3.6736 3.5491-5.4794 6.4756-6.1643v-1.9925h-17.59v1.868c2.9887 0.43585 8.7475 1.2453 8.7475 3.1755 0 0.62266-0.24906 1.6812-0.62265 2.6152z"/>
	</g>
</svg>
