<svg xmlns="http://www.w3.org/2000/svg" height="42.652mm" width="331.91mm" version="1.1" viewBox="0 0 331.91092 42.651711">
	<g transform="translate(255.16 -234.85)">
		<g style="fill:#f9f9f9" transform="translate(224.07 -256.65)">
			<path style="font-variant-numeric:normal;font-variant-ligatures:normal;font-variant-caps:normal;font-feature-settings:normal;fill:#f9f9f9" d="m-426.08 515.35c-7.4718 0.80945-7.7832 0.87171-10.523 1.5566-6.9114 1.7434-10.461 4.7944-10.461 8.9662 0 4.4831 4.0472 7.7209 9.5888 7.7209 4.1718 0 7.2228-1.3076 11.395-4.7944 1.183 3.3623 3.3001 4.7944 6.9737 4.7944 2.6151 0 4.6699-0.74718 6.4133-2.4283l-1.183-1.6189c-1.0585 0.93398-1.7434 1.2453-2.8019 1.2453-1.3076 0-2.4284-0.68492-2.9265-1.7434-0.43586-0.87171-0.56039-1.6812-0.56039-4.3586v-13.2c0-3.7359-0.99624-5.6661-3.5491-7.0982-2.3038-1.3076-5.5416-2.117-8.4058-2.117-2.6774 0-6.0397 0.74718-8.5304 1.8057-2.9265 1.3076-5.0435 3.9227-5.0435 6.102 0 1.4944 1.3698 2.7397 2.9887 2.7397 1.7434 0 3.1755-1.4321 3.1755-3.1755l-0.0623-1.7434c0-1.8057 2.8019-3.2378 6.2888-3.2378 4.4208 0 7.2228 2.1793 7.2228 5.6039zm0 10.647c-3.4869 3.3001-6.102 4.6076-9.2153 4.6076-2.9887 0-5.4171-2.3661-5.4171-5.3548 0-4.1718 5.2303-6.9114 14.632-7.7209z"/>
			<path style="font-variant-numeric:normal;font-variant-ligatures:normal;font-variant-caps:normal;font-feature-settings:normal;fill:#f9f9f9" d="m-406.71 502.83h-2.117c-3.8604 0.74718-5.9152 0.99624-9.4021 1.2453v1.868l1.4944 0.12453c3.1755 0.24906 4.1095 1.4321 4.1095 5.168v14.632c0 3.4246-1.1208 4.8567-3.8604 5.168l-1.5566 0.12453v1.868h16.749v-1.868l-1.5566-0.12453c-2.7397-0.31133-3.8604-1.7434-3.8604-5.168v-15.255c2.2416-2.4906 3.9227-3.4869 5.7284-3.4869 1.0585 0 1.4944 0.1868 2.6151 0.93398 1.0585 0.80945 2.0548 1.1208 3.1755 1.1208 2.0548 0 3.5491-1.4321 3.5491-3.4246 0-2.0548-1.868-3.4869-4.5454-3.4869-1.4321 0-2.9265 0.31133-4.4208 0.99624-1.4944 0.62266-1.8057 0.87172-4.7944 3.4246-0.1868 0.1868-0.68492 0.62266-1.3076 1.1208z"/>
			<path style="font-variant-numeric:normal;font-variant-ligatures:normal;font-variant-caps:normal;font-feature-settings:normal;fill:#f9f9f9" d="m-379.01 502.83h-2.117c-3.7982 0.68492-5.8529 0.99624-9.153 1.2453v1.868l1.2453 0.12453c3.2378 0.31133 4.1095 1.4321 4.1095 5.168v14.632c0 3.4246-1.1208 4.8567-3.8604 5.168l-1.5566 0.12453v1.868h16.687v-1.868l-1.4944-0.12453c-2.8019-0.31133-3.8604-1.7434-3.8604-5.168zm-2.8642-10.523c-2.117 0-3.7982 1.6812-3.7982 3.7359 0 2.117 1.6812 3.7982 3.7359 3.7982 2.117 0 3.7982-1.6812 3.7982-3.7359 0-2.0548-1.6812-3.7982-3.7359-3.7982z"/>
			<path style="font-variant-numeric:normal;font-variant-ligatures:normal;font-variant-caps:normal;font-feature-settings:normal;fill:#f9f9f9" d="m-360.25 502.27c-4.3586 0-8.219 1.4944-10.71 4.0472-2.6152 2.7397-4.3586 7.3473-4.3586 11.706 0 9.402 6.0397 15.566 15.317 15.566 9.0285 0 15.13-6.2265 15.13-15.442 0-4.0472-1.4321-8.1568-3.7359-11.021-2.6151-3.1133-6.7869-4.8567-11.644-4.8567zm0.0623 2.4906c5.6039 0 8.9662 5.168 8.9662 13.698 0 7.9077-3.2378 12.64-8.7171 12.64-5.7284 0-9.0285-4.7944-9.0285-13.2 0-7.97 3.4868-13.138 8.7794-13.138z"/>
			<path style="font-variant-numeric:normal;font-variant-ligatures:normal;font-variant-caps:normal;font-feature-settings:normal;fill:#f9f9f9" d="m-281.02 515.35c-7.4718 0.80945-7.7832 0.87171-10.523 1.5566-6.9114 1.7434-10.461 4.7944-10.461 8.9662 0 4.4831 4.0472 7.7209 9.5888 7.7209 4.1718 0 7.2228-1.3076 11.395-4.7944 1.183 3.3623 3.3001 4.7944 6.9737 4.7944 2.6151 0 4.6699-0.74718 6.4133-2.4283l-1.183-1.6189c-1.0585 0.93398-1.7434 1.2453-2.8019 1.2453-1.3076 0-2.4283-0.68492-2.9265-1.7434-0.43585-0.87171-0.56038-1.6812-0.56038-4.3586v-13.2c0-3.7359-0.99625-5.6661-3.5491-7.0982-2.3038-1.3076-5.5416-2.117-8.4058-2.117-2.6774 0-6.0397 0.74718-8.5303 1.8057-2.9265 1.3076-5.0435 3.9227-5.0435 6.102 0 1.4944 1.3698 2.7397 2.9887 2.7397 1.7434 0 3.1755-1.4321 3.1755-3.1755l-0.0623-1.7434c0-1.8057 2.8019-3.2378 6.2888-3.2378 4.4208 0 7.2228 2.1793 7.2228 5.6039zm0 10.647c-3.4868 3.3001-6.102 4.6076-9.2153 4.6076-2.9887 0-5.4171-2.3661-5.4171-5.3548 0-4.1718 5.2303-6.9114 14.632-7.7209z"/>
			<path style="font-variant-numeric:normal;font-variant-ligatures:normal;font-variant-caps:normal;font-feature-settings:normal;fill:#f9f9f9" d="m-262.18 502.83h-2.117c-3.8604 0.74718-5.9152 0.99624-9.402 1.2453v1.868l1.4944 0.12453c3.1755 0.24906 4.1095 1.4321 4.1095 5.168v14.632c0 3.4246-1.1208 4.8567-3.8604 5.168l-1.5566 0.12453v1.868h16.749v-1.868l-1.5566-0.12453c-2.7397-0.31133-3.8604-1.7434-3.8604-5.168v-15.255c2.2416-2.4906 3.9227-3.4869 5.7284-3.4869 1.0585 0 1.4944 0.1868 2.6151 0.93398 1.0585 0.80945 2.0548 1.1208 3.1755 1.1208 2.0548 0 3.5491-1.4321 3.5491-3.4246 0-2.0548-1.868-3.4869-4.5454-3.4869-1.4321 0-2.9265 0.31133-4.4208 0.99624-1.4944 0.62266-1.8057 0.87172-4.7944 3.4246-0.18679 0.1868-0.68492 0.62266-1.3076 1.1208z"/>
			<path style="font-variant-numeric:normal;font-variant-ligatures:normal;font-variant-caps:normal;font-feature-settings:normal;fill:#f9f9f9" d="m-233.91 502.27c-4.3586 0-8.219 1.4944-10.71 4.0472-2.6151 2.7397-4.3586 7.3473-4.3586 11.706 0 9.402 6.0397 15.566 15.317 15.566 9.0285 0 15.13-6.2265 15.13-15.442 0-4.0472-1.4321-8.1568-3.7359-11.021-2.6151-3.1133-6.7869-4.8567-11.644-4.8567zm0.0623 2.4906c5.6039 0 8.9662 5.168 8.9662 13.698 0 7.9077-3.2378 12.64-8.7171 12.64-5.7284 0-9.0285-4.7944-9.0285-13.2 0-7.97 3.4868-13.138 8.7794-13.138z"/>
			<path style="font-variant-numeric:normal;font-variant-ligatures:normal;font-variant-caps:normal;font-feature-settings:normal;fill:#f9f9f9" d="m-199.85 502.83h-8.9039v-11.332h-2.3661c0.0623 7.6586-2.6774 11.083-8.7794 11.332v2.0548h5.2303v20.859c0 3.051 0.87172 4.9812 2.8642 6.2265 1.6189 0.99624 3.8604 1.6189 6.0397 1.6189 3.6736 0 6.5378-1.4321 8.7794-4.3586l-1.6812-1.3698c-2.117 2.4283-3.5491 3.2378-5.4171 3.2378-3.1755 0-4.6699-2.5529-4.6699-8.219v-17.995h8.9039z"/>
			<path style="font-variant-numeric:normal;font-variant-ligatures:normal;font-variant-caps:normal;font-feature-settings:normal;fill:#f9f9f9" d="m-178.25 502.83h-8.9039v-11.332h-2.3661c0.0623 7.6586-2.6774 11.083-8.7794 11.332v2.0548h5.2303v20.859c0 3.051 0.87171 4.9812 2.8642 6.2265 1.6189 0.99624 3.8604 1.6189 6.0397 1.6189 3.6736 0 6.5379-1.4321 8.7794-4.3586l-1.6812-1.3698c-2.117 2.4283-3.5491 3.2378-5.4171 3.2378-3.1755 0-4.6699-2.5529-4.6699-8.219v-17.995h8.9039z"/>
			<path style="font-variant-numeric:normal;font-variant-ligatures:normal;font-variant-caps:normal;font-feature-settings:normal;fill:#f9f9f9" d="m-162.69 502.27c-4.3586 0-8.219 1.4944-10.71 4.0472-2.6151 2.7397-4.3586 7.3473-4.3586 11.706 0 9.402 6.0397 15.566 15.317 15.566 9.0285 0 15.13-6.2265 15.13-15.442 0-4.0472-1.4321-8.1568-3.7359-11.021-2.6151-3.1133-6.7869-4.8567-11.644-4.8567zm0.0623 2.4906c5.6039 0 8.9662 5.168 8.9662 13.698 0 7.9077-3.2378 12.64-8.7171 12.64-5.7284 0-9.0285-4.7944-9.0285-13.2 0-7.97 3.4868-13.138 8.7794-13.138z"/>
			<path style="font-variant-numeric:normal;font-variant-ligatures:normal;font-variant-caps:normal;font-feature-settings:normal;fill:#f9f9f9" d="m-455.19 503.24c-4.1183-0.036-6.5378-0.65423-10.336-0.65423-7.7832 0-13.698 6.7869-13.698 15.753 0 3.8604 1.3076 8.0322 3.4246 10.834 2.1793 2.9265 5.9775 4.7322 9.8379 4.7322 1.8712-0.0294 7.5591-0.37019 10.772-0.56038h10.461v-1.868l-0.74718-0.12453c-2.8642-0.62265-3.7982-1.868-3.7982-5.168v-34.309h-2.4906c-3.1133 1.2453-4.5454 1.6189-8.7794 2.117v1.9302l1.3076 0.12453c3.3623 0.31132 4.0472 3.7987 4.0472 3.7987zm0 22.758c-2.8019 3.4246-5.4793 4.919-8.9662 4.919-3.1133 0-5.7284-1.6812-7.036-4.5454-1.0585-2.2416-1.6812-5.2926-1.6812-8.1568 0-2.8019 0.62265-5.7284 1.6189-7.97 1.4321-3.1755 4.0472-4.8567 7.5964-4.8567 2.9887 0 5.1058 0.93398 8.4681 3.7359z"/>
			<path d="m-315.57 528.67-7.036-18.493c-0.60775-2.4246-1.088-4.0866 0.31167-4.234 0.12453 0 0.56039-0.0623 1.0585-0.12453v-1.868h-13.076v1.9302c2.8019 0.43586 3.6737 1.1208 5.1058 4.2963l9.9002 23.972h3.6736l9.5266-22.042c1.6812-3.6736 3.5491-5.4794 6.4756-6.1643v-1.9925h-17.589v1.868c2.9887 0.43585 8.7475 1.2453 8.7475 3.1755 0 0.62266-0.24906 1.6812-0.62265 2.6152z" style="font-variant-numeric:normal;font-variant-ligatures:normal;font-variant-caps:normal;font-feature-settings:normal;fill:#f9f9f9"/>
		</g>
	</g>
</svg>
