<?xml version="1.0" standalone="no"?>
<!DOCTYPE svg PUBLIC "-//W3C//DTD SVG 20010904//EN"
 "http://www.w3.org/TR/2001/REC-SVG-20010904/DTD/svg10.dtd">
<svg version="1.0" xmlns="http://www.w3.org/2000/svg"
 width="700.000000pt" height="700.000000pt" viewBox="0 0 700.000000 700.000000"
 preserveAspectRatio="xMidYMid meet">
<metadata>
Created by potrace 1.11, written by Peter Selinger 2001-2013
</metadata>
<g transform="translate(0.000000,700.000000) scale(0.100000,-0.100000)"
fill="#000000" stroke="none">
<path d="M189 6980 c-54 -28 -119 -99 -148 -160 l-26 -55 0 -345 c0 -290 3
-358 18 -425 46 -210 127 -273 320 -248 167 22 294 127 386 318 82 168 114
330 115 575 1 170 -6 204 -56 278 -55 81 -60 82 -333 82 -215 -1 -244 -3 -276
-20z"/>
<path d="M2346 6991 c-4 -5 -48 -30 -99 -54 -171 -81 -279 -210 -421 -503
-121 -250 -224 -394 -424 -598 -170 -173 -360 -321 -537 -419 -38 -21 -232
-115 -430 -209 -198 -94 -365 -175 -371 -182 -8 -8 -15 -281 -23 -916 -6 -498
-16 -933 -20 -968 -8 -56 -16 -1414 -16 -2652 l0 -465 790 2 c935 1 1028 8
1077 74 17 23 18 29 5 66 -14 41 -77 125 -187 248 -158 178 -245 320 -304 496
-77 230 -100 440 -93 842 5 309 20 469 63 697 141 749 505 1327 1064 1689 137
89 327 179 550 262 321 118 476 204 611 338 88 88 126 158 140 258 28 196 40
237 106 368 89 179 163 274 400 518 228 233 275 287 337 391 45 75 46 109 4
172 -46 68 -150 143 -313 223 -245 121 -534 216 -895 292 l-155 33 -427 4
c-279 2 -428 0 -432 -7z"/>
<path d="M5815 6985 c-202 -38 -415 -107 -544 -177 -129 -71 -274 -228 -288
-311 -5 -34 -2 -41 35 -76 48 -46 147 -84 342 -131 361 -86 469 -115 635 -171
224 -74 461 -187 527 -251 58 -57 98 -142 137 -288 95 -365 136 -904 119
-1586 -11 -484 -47 -845 -119 -1211 -43 -216 -88 -367 -162 -539 -137 -319
-164 -456 -107 -548 16 -26 43 -46 106 -77 100 -49 139 -89 189 -192 57 -119
85 -261 92 -462 5 -163 4 -176 -26 -321 -17 -83 -31 -162 -31 -175 -1 -39 -56
-156 -100 -214 -28 -36 -60 -63 -103 -85 -71 -37 -97 -58 -97 -75 0 -37 206
-69 295 -46 40 10 50 10 65 -4 50 -45 120 8 164 125 50 136 59 226 51 505 -4
138 -7 309 -6 380 0 72 3 1438 6 3038 l6 2907 -558 -1 c-410 -1 -577 -5 -628
-14z"/>
<path d="M6005 5473 c-370 -28 -1019 -234 -1275 -405 -124 -83 -149 -138 -116
-253 34 -114 93 -176 187 -196 71 -15 103 -32 133 -72 65 -85 97 -216 97 -392
0 -187 -24 -261 -99 -312 -77 -51 -237 -52 -522 -3 -63 11 -164 25 -225 30
-64 7 -132 20 -163 32 -71 28 -154 22 -203 -14 -22 -16 -59 -30 -104 -38 -478
-84 -951 -345 -1320 -731 -189 -197 -325 -389 -435 -614 -128 -262 -187 -484
-197 -735 l-6 -155 42 -110 c50 -133 144 -306 256 -475 295 -442 595 -682 945
-757 116 -24 334 -24 450 0 142 31 267 76 452 163 222 104 287 125 408 131
160 8 277 -26 482 -142 151 -85 240 -119 378 -145 204 -39 357 -16 540 81 41
22 125 62 187 89 270 117 461 267 530 418 30 63 26 107 -13 143 -24 22 -33 24
-127 23 -89 0 -116 -5 -215 -37 -157 -51 -210 -48 -270 16 -32 34 -71 151 -84
255 -14 111 -4 528 17 717 45 410 120 886 269 1700 164 897 249 1419 272 1661
7 81 -2 97 -64 113 -44 11 -151 18 -207 14z m-1468 -2183 c163 -22 224 -79
231 -218 9 -158 -68 -546 -170 -862 -173 -537 -394 -948 -574 -1071 -168 -113
-312 -169 -459 -176 -89 -5 -107 -3 -153 17 -159 68 -282 353 -324 748 -20
194 21 443 112 675 188 478 574 829 975 886 86 12 271 13 362 1z"/>
</g>
</svg>
