<?xml version="1.0" encoding="UTF-8" standalone="no"?>
<!-- Created with Inkscape (http://www.inkscape.org/) -->

<svg
   xmlns:dc="http://purl.org/dc/elements/1.1/"
   xmlns:cc="http://creativecommons.org/ns#"
   xmlns:rdf="http://www.w3.org/1999/02/22-rdf-syntax-ns#"
   xmlns:svg="http://www.w3.org/2000/svg"
   xmlns="http://www.w3.org/2000/svg"
   xmlns:sodipodi="http://sodipodi.sourceforge.net/DTD/sodipodi-0.dtd"
   xmlns:inkscape="http://www.inkscape.org/namespaces/inkscape"
   width="8.4666662mm"
   height="8.4666662mm"
   viewBox="0 0 8.4666662 8.4666662"
   version="1.1"
   id="svg8"
   inkscape:version="0.92.2 (5c3e80d, 2017-08-06)"
   sodipodi:docname="favicon..svg">
  <defs
     id="defs2" />
  <sodipodi:namedview
     id="base"
     pagecolor="#ffffff"
     bordercolor="#666666"
     borderopacity="1.0"
     inkscape:pageopacity="0.0"
     inkscape:pageshadow="2"
     inkscape:zoom="4.7840196"
     inkscape:cx="64.565715"
     inkscape:cy="-36.012425"
     inkscape:document-units="mm"
     inkscape:current-layer="layer1"
     showgrid="false"
     fit-margin-top="0"
     fit-margin-left="0"
     fit-margin-right="0"
     fit-margin-bottom="0"
     inkscape:window-width="1920"
     inkscape:window-height="1020"
     inkscape:window-x="0"
     inkscape:window-y="0"
     inkscape:window-maximized="1" />
  <metadata
     id="metadata5">
    <rdf:RDF>
      <cc:Work
         rdf:about="">
        <dc:format>image/svg+xml</dc:format>
        <dc:type
           rdf:resource="http://purl.org/dc/dcmitype/StillImage" />
        <dc:title></dc:title>
      </cc:Work>
    </rdf:RDF>
  </metadata>
  <g
     inkscape:label="Layer 1"
     inkscape:groupmode="layer"
     id="layer1"
     transform="translate(-205.92143,-208.85596)">
    <g
       id="g886"
       transform="translate(-8.9490469,0.08240243)">
      <path
         style="fill:#ebecf6;stroke-width:0.26458332"
         d="m 214.88095,212.97868 v -4.23333 h 4.23333 4.23334 v 4.23333 4.23334 h -4.23334 -4.23333 z"
         id="path910"
         inkscape:connector-curvature="0" />
      <path
         style="fill:#cfd1eb;stroke-width:0.26458332"
         d="m 214.88095,212.97868 v -4.23333 h 4.23333 4.23334 v 4.23333 4.23334 h -4.23334 -4.23333 z m 2.55455,3.4849 c -0.24351,-0.26908 -0.43788,-0.92407 -0.43788,-1.47556 0,-1.42481 1.15185,-2.5385 2.62548,-2.5385 0.75424,0 1.07868,-0.11274 1.07868,-0.37483 0,-0.20615 -0.14883,-0.4368 -0.33073,-0.51254 -0.43298,-0.1803 0.50977,-0.96472 1.15944,-0.96472 0.25464,0 0.53656,-0.11906 0.6265,-0.26458 0.0972,-0.15733 -0.2157,-0.26458 -0.77203,-0.26458 -1.03919,0 -1.88744,0.89935 -1.58691,1.68251 0.13046,0.33998 0.003,0.43429 -0.58931,0.43477 -1.10774,9e-4 -2.45544,1.25701 -2.65267,2.47235 -0.13026,0.80271 -0.0458,1.10932 0.45135,1.63851 0.70191,0.74715 1.09016,0.89876 0.42808,0.16717 z m 2.47784,-0.97775 c 0.51033,-0.6149 0.19937,-0.68056 -0.53843,-0.11368 -0.49013,0.37659 -0.54789,0.50668 -0.22688,0.51107 0.23685,0.003 0.58123,-0.17559 0.76531,-0.39739 z m 2.52699,-0.58892 c 0.0103,-0.5457 0.0977,-1.70656 0.19408,-2.57969 l 0.17532,-1.5875 -0.36089,1.5875 c -0.6781,2.98293 -0.73911,3.57188 -0.36998,3.57188 0.2163,0 0.34963,-0.36597 0.36147,-0.99219 z"
         id="path908"
         inkscape:connector-curvature="0" />
      <path
         style="fill:#cccdd3;stroke-width:0.26458332"
         d="m 214.88095,212.97868 v -4.23333 h 4.23333 4.23334 v 4.27019 4.27018 l -1.38746,-0.16432 c -0.7631,-0.0904 -1.42564,-0.27887 -1.4723,-0.41886 -0.0467,-0.14 -0.25507,-0.18923 -0.46311,-0.10939 -0.20804,0.0798 -0.3022,0.26821 -0.20924,0.41863 0.32066,0.51883 -1.87835,-0.0753 -2.35487,-0.63625 -1.23785,-1.45715 0.14761,-3.92601 2.20316,-3.92601 0.74626,0 1.03798,-0.11154 1.03798,-0.39688 0,-0.21828 -0.12898,-0.39687 -0.28663,-0.39687 -0.15765,0 -0.24024,-0.13917 -0.18354,-0.30926 0.11198,-0.33595 2.06234,-1.09719 2.27254,-0.88699 0.11711,0.11711 -0.20172,2.40325 -0.63729,4.56968 -0.15172,0.75461 -0.10405,0.8599 0.38935,0.8599 0.61187,0 0.71029,0.2445 0.2986,0.74178 -0.145,0.17514 -0.0637,0.14313 0.18075,-0.0711 0.41532,-0.36409 0.41297,-0.42431 -0.0358,-0.92024 -0.42717,-0.47202 -0.44088,-0.62565 -0.12405,-1.39053 0.45794,-1.10558 0.45941,-3.46858 0.002,-4.01913 -0.76632,-0.92339 -2.9347,-0.0283 -2.9347,1.21147 0,0.24423 -0.31439,0.47577 -0.76965,0.56682 -0.42331,0.0847 -1.13714,0.54603 -1.58628,1.02526 -0.99529,1.06197 -1.10131,2.42554 -0.2707,3.48149 l 0.54837,0.69714 h -1.34212 -1.34212 z m 4.99312,2.55447 c 0.16247,-0.19577 0.36764,-0.71711 0.45592,-1.15853 0.21233,-1.06163 -0.30407,-1.36869 -1.04396,-0.62076 -0.45434,0.45928 -0.47556,0.53981 -0.1056,0.40067 0.25466,-0.0958 0.46302,-0.28748 0.46302,-0.42602 0,-0.13854 0.11906,-0.17831 0.26458,-0.0884 0.49931,0.30859 0.26401,0.88195 -0.50088,1.22052 -0.44481,0.19689 -0.71004,0.48326 -0.63315,0.68363 0.1715,0.44691 0.72456,0.44131 1.10007,-0.0111 z"
         id="path906"
         inkscape:connector-curvature="0" />
      <path
         style="fill:#b3c3e4;stroke-width:0.26458332"
         d="m 214.88095,212.97868 v -4.23333 h 4.23333 4.23334 v 4.23333 4.23334 l -0.8599,-0.002 c -0.47294,-9e-4 -1.19971,-0.17886 -1.61504,-0.39548 -0.75763,-0.39513 -1.37044,-0.31001 -1.08564,0.1508 0.20436,0.33066 -0.40839,0.31094 -1.43261,-0.0461 -1.63724,-0.57074 -1.83444,-2.19329 -0.43647,-3.59126 0.77815,-0.77815 1.07401,-0.90711 1.91484,-0.83467 0.7776,0.067 1.0139,-0.015 1.08343,-0.37611 0.0489,-0.25398 -0.0389,-0.46178 -0.19505,-0.46178 -0.15619,0 -0.28398,-0.16535 -0.28398,-0.36743 0,-0.35109 1.76074,-0.87045 2.03185,-0.59933 0.0691,0.0691 -0.0621,1.12789 -0.29162,2.35278 -0.52401,2.79647 -0.52797,3.21097 -0.0289,3.01946 0.57705,-0.22143 0.75578,0.28099 0.21247,0.59729 -0.25772,0.15004 -0.33433,0.27642 -0.17025,0.28085 0.16408,0.004 0.44841,-0.17278 0.63183,-0.3938 0.27278,-0.32867 0.24823,-0.49604 -0.13479,-0.91928 -0.41479,-0.45834 -0.4276,-0.6157 -0.11211,-1.37734 0.45794,-1.10558 0.45941,-3.46858 0.002,-4.01913 -0.76632,-0.92339 -2.9347,-0.0283 -2.9347,1.21147 0,0.24423 -0.31439,0.47577 -0.76965,0.56682 -0.42331,0.0847 -1.13714,0.54603 -1.58628,1.02526 -0.99529,1.06197 -1.10131,2.42554 -0.2707,3.48149 l 0.54837,0.69714 h -1.34212 -1.34212 z m 5.25556,2.1638 c 0.51147,-1.30875 0.47616,-1.76077 -0.14443,-1.84912 -0.3694,-0.0526 -0.68253,0.11421 -0.8692,0.46302 -0.34812,0.65045 -0.20232,0.70114 0.37014,0.12869 0.37899,-0.37899 0.43138,-0.37785 0.58125,0.0127 0.18751,0.48864 -0.63889,1.2492 -1.15842,1.06613 -0.41127,-0.14491 -0.43498,0.45053 -0.0339,0.8516 0.42323,0.42323 0.93302,0.14975 1.25457,-0.67303 z"
         id="path904"
         inkscape:connector-curvature="0" />
      <path
         style="fill:#949fd7;stroke-width:0.26458332"
         d="m 214.88095,212.97868 v -4.23333 h 4.23333 4.23334 v 4.23333 c 0,4.21612 -0.002,4.2333 -0.59532,4.22529 -0.53165,-0.007 -0.5458,-0.0369 -0.13229,-0.27773 0.53092,-0.30923 0.60693,-1.05198 0.15401,-1.5049 -0.23562,-0.23562 -0.23562,-0.55395 0,-1.34038 0.37658,-1.2569 0.39686,-2.68885 0.051,-3.59859 -0.21532,-0.56634 -0.42668,-0.67869 -1.2768,-0.67869 -1.09463,0 -2.16933,0.82767 -2.16933,1.6707 0,0.26695 -0.20873,0.44597 -0.51996,0.44597 -0.28598,0 -0.94083,0.36952 -1.45521,0.82116 -0.82533,0.72465 -0.93525,0.9696 -0.93525,2.08427 0,0.79998 0.14552,1.38388 0.39687,1.59249 0.67646,0.56141 0.44412,0.79375 -0.79375,0.79375 h -1.19062 z m 2.64583,3.43959 c -0.83462,-0.83463 -0.6854,-2.01335 0.39118,-3.08993 0.77815,-0.77815 1.07401,-0.90711 1.91484,-0.83467 0.7776,0.067 1.0139,-0.015 1.08343,-0.37611 0.0489,-0.25399 -0.0389,-0.46179 -0.19505,-0.46179 -0.15619,0 -0.28398,-0.16535 -0.28398,-0.36743 0,-0.35109 1.76074,-0.87045 2.03185,-0.59933 0.0691,0.0691 -0.0621,1.12789 -0.29162,2.35278 -0.50557,2.69808 -0.51742,3.15808 -0.0788,3.05735 0.69275,-0.15909 0.55981,0.44841 -0.15298,0.69909 -0.53533,0.18826 -0.89216,0.16569 -1.28797,-0.0815 -0.39268,-0.24523 -0.62843,-0.26096 -0.83379,-0.0556 -0.46251,0.46251 -1.72527,0.32901 -2.29714,-0.24286 z m 2.60973,-1.27579 c 0.51215,-1.31049 0.47635,-1.76075 -0.14706,-1.84947 -0.92833,-0.13211 -1.79292,1.83709 -1.10751,2.5225 0.42323,0.42323 0.93302,0.14975 1.25457,-0.67303 z m -0.96159,-0.62591 c 0.0576,-0.1728 0.2462,-0.36134 0.4191,-0.41898 0.19334,-0.0644 0.25248,0.0565 0.15359,0.31419 -0.18455,0.48094 -0.73143,0.58101 -0.57269,0.10479 z"
         id="path902"
         inkscape:connector-curvature="0" />
      <path
         style="fill:#9d9da0;stroke-width:0.26458332"
         d="m 214.89874,214.18605 0.0387,-3.02598 0.87666,-0.416 c 0.48217,-0.2288 1.0343,-0.77212 1.22696,-1.20736 0.28398,-0.64157 0.51099,-0.79136 1.19929,-0.79136 0.87833,0 2.19682,0.47727 2.19682,0.79521 0,0.0996 -0.23813,0.39661 -0.52917,0.66 -0.29104,0.26339 -0.52916,0.68933 -0.52916,0.94653 0,0.29941 -0.33153,0.57705 -0.92159,0.77179 -1.22249,0.40346 -1.94462,1.47049 -2.02325,2.98961 -0.0459,0.88664 0.0717,1.37697 0.42332,1.76554 0.48295,0.53367 0.47689,0.53799 -0.75523,0.53799 h -1.2421 z m 7.85356,2.85074 c 0.42839,-0.17286 0.43093,-1.59936 0.003,-1.74197 -0.26044,-0.0868 -0.26044,-0.25665 0,-0.82824 0.43224,-0.94869 0.43006,-3.9864 -0.003,-4.33536 -0.1819,-0.14654 -0.71689,-0.349 -1.18888,-0.44992 -0.74188,-0.15862 -0.80718,-0.23446 -0.48192,-0.55972 0.20693,-0.20692 0.80146,-0.37623 1.32118,-0.37623 h 0.94494 v 4.23333 c 0,3.86332 -0.0405,4.23151 -0.46302,4.21245 -0.27661,-0.0125 -0.32987,-0.0746 -0.1323,-0.15434 z m -5.22552,-0.61852 c -0.83462,-0.83463 -0.6854,-2.01335 0.39118,-3.08993 0.77815,-0.77815 1.07401,-0.90711 1.91484,-0.83467 0.7776,0.067 1.0139,-0.015 1.08343,-0.37611 0.0489,-0.25399 -0.0389,-0.46179 -0.19505,-0.46179 -0.15619,0 -0.28398,-0.16535 -0.28398,-0.36743 0,-0.35109 1.76074,-0.87045 2.03185,-0.59933 0.0691,0.0691 -0.0621,1.12789 -0.29162,2.35278 -0.50557,2.69808 -0.51742,3.15808 -0.0788,3.05735 0.69275,-0.15909 0.55981,0.44841 -0.15298,0.69909 -0.53533,0.18826 -0.89216,0.16569 -1.28797,-0.0815 -0.39268,-0.24523 -0.62843,-0.26096 -0.83379,-0.0556 -0.46251,0.46251 -1.72527,0.32901 -2.29714,-0.24286 z m 2.60973,-1.27579 c 0.51215,-1.31049 0.47635,-1.76075 -0.14706,-1.84947 -0.92833,-0.13211 -1.79292,1.83709 -1.10751,2.5225 0.42323,0.42323 0.93302,0.14975 1.25457,-0.67303 z m -5.25556,-5.58398 c 0,-0.64547 0.11274,-0.81315 0.54674,-0.81315 0.44,0 0.5304,0.14161 0.46302,0.72534 -0.0505,0.43748 -0.26748,0.76019 -0.54674,0.81315 -0.35958,0.0682 -0.46302,-0.0939 -0.46302,-0.72534 z"
         id="path900"
         inkscape:connector-curvature="0" />
      <path
         style="fill:#7e87ce;stroke-width:0.26458332"
         d="m 214.89874,214.18605 0.0387,-3.02598 0.87666,-0.416 c 0.48217,-0.2288 1.0343,-0.77212 1.22696,-1.20736 0.28398,-0.64157 0.51099,-0.79136 1.19929,-0.79136 0.87833,0 2.19682,0.47727 2.19682,0.79521 0,0.0996 -0.23813,0.39661 -0.52917,0.66 -0.29104,0.26339 -0.52916,0.68933 -0.52916,0.94653 0,0.29941 -0.33153,0.57705 -0.92159,0.77179 -1.22249,0.40346 -1.94462,1.47049 -2.02325,2.98961 -0.0459,0.88664 0.0717,1.37697 0.42332,1.76554 0.48295,0.53367 0.47689,0.53799 -0.75523,0.53799 h -1.2421 z m 7.85356,2.85074 c 0.42839,-0.17286 0.43093,-1.59936 0.003,-1.74197 -0.26044,-0.0868 -0.26044,-0.25665 0,-0.82824 0.43224,-0.94869 0.43006,-3.9864 -0.003,-4.33536 -0.1819,-0.14654 -0.71689,-0.349 -1.18888,-0.44992 -0.74188,-0.15862 -0.80718,-0.23446 -0.48192,-0.55972 0.20693,-0.20692 0.80146,-0.37623 1.32118,-0.37623 h 0.94494 v 4.23333 c 0,3.86332 -0.0405,4.23151 -0.46302,4.21245 -0.27661,-0.0125 -0.32987,-0.0746 -0.1323,-0.15434 z m -5.20631,-0.7865 c -0.30161,-0.38342 -0.54837,-0.85192 -0.54837,-1.04111 0,-1.48455 1.6562,-2.8825 3.10885,-2.62408 0.73972,0.1316 0.8599,0.0773 0.8599,-0.38818 0,-0.29763 -0.11907,-0.54115 -0.26459,-0.54115 -0.14552,0 -0.26458,-0.16302 -0.26458,-0.36226 0,-0.29702 1.79053,-0.84583 2.01787,-0.61849 0.0337,0.0337 -0.10874,0.95277 -0.31653,2.04237 -0.499,2.61661 -0.49625,3.53812 0.01,3.34386 0.78638,-0.30176 0.63545,0.3071 -0.15755,0.63557 -0.64019,0.26518 -0.93184,0.2706 -1.32565,0.0247 -0.35579,-0.22219 -0.65423,-0.23539 -1.01057,-0.0447 -0.83845,0.44873 -1.53039,0.30878 -2.10876,-0.42651 z m 2.46226,-0.69192 c 0.20735,-0.32742 0.45768,-0.98227 0.55629,-1.45521 0.16477,-0.79028 0.12525,-0.85989 -0.48819,-0.85989 -0.78975,0 -1.49123,0.87818 -1.49123,1.86685 0,1.19586 0.79175,1.44524 1.42313,0.44825 z m -5.1273,-5.99987 c 0,-0.64547 0.11274,-0.81315 0.54674,-0.81315 0.44,0 0.5304,0.14161 0.46302,0.72534 -0.0505,0.43748 -0.26748,0.76019 -0.54674,0.81315 -0.35958,0.0682 -0.46302,-0.0939 -0.46302,-0.72534 z"
         id="path898"
         inkscape:connector-curvature="0" />
      <path
         style="fill:#807ec8;stroke-width:0.26458332"
         d="m 214.88095,214.85907 c 0,-1.83554 0.0863,-2.38605 0.39241,-2.50352 0.22216,-0.0853 0.32505,-0.32615 0.23714,-0.55525 -0.20469,-0.5334 0.58392,-0.82933 1.09024,-0.40912 0.21458,0.17808 0.57025,0.25467 0.79038,0.1702 0.2453,-0.0941 0.40025,-0.003 0.40025,0.23498 0,0.21372 -0.22839,0.38857 -0.50753,0.38857 -0.85045,0 -1.34456,0.29636 -1.34456,0.80645 0,0.26688 0.11907,0.55882 0.26459,0.64876 0.42363,0.26182 0.30563,1.23204 -0.19844,1.63162 -0.43556,0.34527 -0.42772,0.39207 0.13229,0.78905 0.90242,0.6397 0.75547,1.15121 -0.33073,1.15121 h -0.92604 z m 8.13733,1.69149 c 0.0695,-0.3638 0.17209,-0.66146 0.22789,-0.66146 0.0558,0 0.10145,0.29766 0.10145,0.66146 0,0.3638 -0.10256,0.66146 -0.2279,0.66146 -0.12534,0 -0.17099,-0.29766 -0.10144,-0.66146 z m -5.47229,-0.30027 c -0.30161,-0.38342 -0.54837,-0.85192 -0.54837,-1.04111 0,-1.48455 1.6562,-2.8825 3.10885,-2.62408 0.73972,0.1316 0.8599,0.0773 0.8599,-0.38818 0,-0.29763 -0.11907,-0.54115 -0.26459,-0.54115 -0.14552,0 -0.26458,-0.16302 -0.26458,-0.36226 0,-0.29702 1.79053,-0.84583 2.01787,-0.61849 0.0337,0.0337 -0.10874,0.95277 -0.31653,2.04237 -0.499,2.61661 -0.49625,3.53812 0.01,3.34386 0.78638,-0.30176 0.63545,0.3071 -0.15755,0.63557 -0.64019,0.26518 -0.93184,0.2706 -1.32565,0.0247 -0.35579,-0.22219 -0.65423,-0.23539 -1.01057,-0.0447 -0.83845,0.44873 -1.53039,0.30878 -2.10876,-0.42651 z m 2.46226,-0.69192 c 0.20735,-0.32742 0.45768,-0.98227 0.55629,-1.45521 0.16477,-0.79028 0.12525,-0.85989 -0.48819,-0.85989 -0.78975,0 -1.49123,0.87818 -1.49123,1.86685 0,1.19586 0.79175,1.44524 1.42313,0.44825 z m 2.8653,-0.64193 c -0.22144,-0.0889 -0.25476,-0.24451 -0.0946,-0.44213 0.13593,-0.16775 0.30568,-0.54313 0.37722,-0.83417 0.0749,-0.30483 0.14308,-0.10854 0.16076,0.46302 0.0169,0.54571 9.3e-4,0.98279 -0.0354,0.9713 -0.0364,-0.0115 -0.21994,-0.0826 -0.40792,-0.15802 z m 0.0738,-4.64974 c -0.14365,-0.32742 -0.53602,-0.63427 -0.87194,-0.68188 -0.49515,-0.0702 -0.55162,-0.15783 -0.29833,-0.46302 0.17183,-0.20705 0.5955,-0.37645 0.94148,-0.37645 0.55752,0 0.62907,0.12037 0.62907,1.05833 0,1.22314 -0.0443,1.2744 -0.40028,0.46302 z m -5.42056,-0.18282 c 0,-0.13693 0.12485,-0.32612 0.27743,-0.42043 0.18966,-0.11721 0.17941,-0.28958 -0.0324,-0.54478 -0.4903,-0.59078 0.71996,-0.48089 1.36961,0.12436 0.53238,0.49598 0.5313,0.49868 -0.31512,0.79375 -1.03577,0.36107 -1.29953,0.37063 -1.29953,0.0471 z m -2.64583,-0.66146 c 0,-0.50458 0.13718,-0.67707 0.53848,-0.67707 0.45134,0 0.49392,0.0832 0.26316,0.51443 -0.44174,0.8254 -0.80164,0.89842 -0.80164,0.16264 z"
         id="path896"
         inkscape:connector-curvature="0" />
      <path
         style="fill:#7e7ec7;stroke-width:0.26458332"
         d="m 214.88095,217.07759 c 0,-0.45773 0.87423,-1.00272 1.2392,-0.77251 0.66923,0.42214 0.51478,0.77135 -0.3793,0.85755 -0.47295,0.0456 -0.8599,0.007 -0.8599,-0.085 z m 2.66504,-0.8273 c -0.30161,-0.38342 -0.54837,-0.85192 -0.54837,-1.04111 0,-1.48455 1.6562,-2.8825 3.10885,-2.62408 0.73972,0.1316 0.8599,0.0773 0.8599,-0.38818 0,-0.29763 -0.11907,-0.54115 -0.26459,-0.54115 -0.14552,0 -0.26458,-0.16302 -0.26458,-0.36226 0,-0.29702 1.79053,-0.84583 2.01787,-0.61849 0.0337,0.0337 -0.10874,0.95277 -0.31653,2.04237 -0.499,2.61661 -0.49625,3.53812 0.01,3.34386 0.78638,-0.30176 0.63545,0.3071 -0.15755,0.63557 -0.64019,0.26518 -0.93184,0.2706 -1.32565,0.0247 -0.35579,-0.22219 -0.65423,-0.23539 -1.01057,-0.0447 -0.83845,0.44873 -1.53039,0.30878 -2.10876,-0.42651 z m 2.46226,-0.69192 c 0.20735,-0.32742 0.45768,-0.98227 0.55629,-1.45521 0.16477,-0.79028 0.12525,-0.85989 -0.48819,-0.85989 -0.78975,0 -1.49123,0.87818 -1.49123,1.86685 0,1.19586 0.79175,1.44524 1.42313,0.44825 z m -5.1273,-0.0661 c 0,-0.21828 0.11906,-0.39687 0.26458,-0.39687 0.14552,0 0.26459,-0.17859 0.26459,-0.39688 0,-0.21828 -0.11907,-0.39687 -0.26459,-0.39687 -0.42661,0 -0.30758,-1.51438 0.13229,-1.68318 0.21829,-0.0838 0.39688,-0.45369 0.39688,-0.82206 0,-0.36837 0.13024,-0.66976 0.28941,-0.66976 0.19431,0 0.23092,0.42532 0.11139,1.29438 -0.11375,0.82709 -0.075,1.35808 0.10746,1.47083 0.46571,0.28782 0.32699,0.9518 -0.30982,1.48306 -0.72715,0.60661 -0.99219,0.63796 -0.99219,0.11735 z m 8.07109,-0.65936 c -0.0892,-0.14437 -0.0403,-0.47179 0.10863,-0.7276 0.23234,-0.39898 0.272,-0.36166 0.2789,0.26249 0.008,0.76087 -0.11397,0.90775 -0.38753,0.46511 z m -5.27704,-4.73882 c -0.18277,-0.29574 1.39928,-0.87548 1.76771,-0.64777 0.14721,0.091 -0.11827,0.32767 -0.58993,0.52599 -1.01678,0.42753 -0.99049,0.42481 -1.17778,0.12178 z m -2.79405,-0.92977 c 0,-0.2304 0.18852,-0.41892 0.41892,-0.41892 0.23041,0 0.3718,0.14139 0.3142,0.31419 -0.16354,0.4906 -0.73312,0.57197 -0.73312,0.10473 z m 6.82956,0.19409 c 0.19099,-0.0764 0.4192,-0.067 0.50712,0.0209 0.0879,0.0879 -0.0684,0.15045 -0.34727,0.13896 -0.30823,-0.0127 -0.37092,-0.0754 -0.15985,-0.15985 z"
         id="path894"
         inkscape:connector-curvature="0" />
      <path
         style="fill:#4d4d4d;stroke-width:0.26458332"
         d="m 217.54599,216.25029 c -0.30161,-0.38342 -0.54837,-0.85192 -0.54837,-1.04111 0,-1.48455 1.6562,-2.8825 3.10885,-2.62408 0.73972,0.1316 0.8599,0.0773 0.8599,-0.38818 0,-0.29763 -0.11907,-0.54115 -0.26459,-0.54115 -0.14552,0 -0.26458,-0.16302 -0.26458,-0.36226 0,-0.29702 1.79053,-0.84583 2.01787,-0.61849 0.0337,0.0337 -0.10874,0.95277 -0.31653,2.04237 -0.499,2.61661 -0.49625,3.53812 0.01,3.34386 0.78638,-0.30176 0.63545,0.3071 -0.15755,0.63557 -0.64019,0.26518 -0.93184,0.2706 -1.32565,0.0247 -0.35579,-0.22219 -0.65423,-0.23539 -1.01057,-0.0447 -0.83845,0.44873 -1.53039,0.30878 -2.10876,-0.42651 z m 2.46226,-0.69192 c 0.20735,-0.32742 0.45768,-0.98227 0.55629,-1.45521 0.16477,-0.79028 0.12525,-0.85989 -0.48819,-0.85989 -0.78975,0 -1.49123,0.87818 -1.49123,1.86685 0,1.19586 0.79175,1.44524 1.42313,0.44825 z"
         id="path892"
         inkscape:connector-curvature="0" />
      <path
         style="fill:#333333;stroke-width:0.26458332"
         d="m 218.27066,216.76818 c -0.64186,-0.16934 -0.71208,-1.12342 -0.1656,-2.25019 0.47597,-0.98139 1.00922,-1.53164 1.00922,-1.04137 0,0.14552 -0.11906,0.33817 -0.26458,0.4281 -0.43129,0.26656 -0.31836,1.98035 0.14215,2.15706 0.48675,0.18679 1.44468,-0.61153 1.44698,-1.20588 9e-4,-0.2321 0.17839,-0.76091 0.39442,-1.17513 0.21604,-0.41421 0.36413,-1.12632 0.3291,-1.58245 -0.0533,-0.69401 0.0334,-0.83506 0.53162,-0.8644 0.70222,-0.0414 0.70409,-0.0195 0.21708,2.53424 -0.37984,1.99174 -0.21883,2.8387 0.47436,2.49528 0.16541,-0.082 0.0696,0.0384 -0.21284,0.2675 -0.64804,0.52552 -1.0586,0.5263 -1.58189,0.003 -0.37492,-0.37492 -0.46854,-0.37492 -1.00381,0 -0.32468,0.22742 -0.65313,0.39967 -0.7299,0.38279 -0.0768,-0.0169 -0.3406,-0.0837 -0.58631,-0.14856 z m 1.10821,-3.94384 c 0,-0.23041 0.14138,-0.37179 0.31419,-0.31419 0.4906,0.16353 0.57196,0.73312 0.10473,0.73312 -0.23041,0 -0.41892,-0.18852 -0.41892,-0.41893 z"
         id="path890"
         inkscape:connector-curvature="0" />
      <path
         style="fill:#2d2d2d;stroke-width:0.26458332"
         d="m 220.55524,216.13063 c -0.0978,-0.1582 -0.0403,-0.4251 0.1277,-0.5931 0.23089,-0.2309 0.3631,-0.21221 0.54157,0.0766 0.25218,0.40803 0.12502,0.80417 -0.25814,0.80417 -0.12835,0 -0.31335,-0.12944 -0.41113,-0.28764 z m 1.00702,-3.54882 c 0.003,-0.58209 0.0571,-0.78906 0.1204,-0.45994 0.0633,0.32912 0.0609,0.80537 -0.005,1.05834 -0.0662,0.25296 -0.118,-0.0163 -0.11506,-0.5984 z"
         id="path888"
         inkscape:connector-curvature="0" />
    </g>
  </g>
</svg>
